<?xml version="1.0" encoding="UTF-8" standalone="no"?>
<!DOCTYPE svg PUBLIC "-//W3C//DTD SVG 1.1//EN" "http://www.w3.org/Graphics/SVG/1.1/DTD/svg11.dtd">
<svg version="1.1" xmlns="http://www.w3.org/2000/svg" xmlns:xlink="http://www.w3.org/1999/xlink" preserveAspectRatio="xMidYMid meet" viewBox="-427.2727272727278 -1719.7555282460112 3981.2172717126723 3515.8746928556598" width="271.77" height="240"><defs><path d="M2230.57 -76.65C2232.98 -78.41 2235.35 -80.31 2237.77 -82.11C2106.79 -108.72 2018.9 -255.58 2041.45 -410.13C2057.21 -518.12 2124.23 -605.78 2213.65 -635.36C2213.56 -627.55 2213.15 -588.55 2212.4 -518.33L2266.87 -645.6C2267.28 -645.6 2267.51 -645.6 2267.55 -645.6C2400.29 -652.92 2512.92 -531.89 2519.12 -375.26C2519.12 -375.25 2519.12 -375.23 2519.12 -375.22C2519.37 -369.81 2519.12 -364.45 2519.12 -359.09C2538.06 -384.61 2555.3 -411.98 2566.68 -441.96C2589.71 -502.63 2590.16 -571.41 2588.35 -654.95C2584.73 -820.55 2578.66 -987.38 2570.78 -1153.69C2453.28 -1169.13 2362.69 -1283.01 2357.08 -1422.37C2356.76 -1431.05 2356.88 -1439.63 2357.08 -1448.12C2357.08 -1450.26 2357.08 -1452.39 2357.36 -1454.48C2357.84 -1462.73 2358.49 -1470.89 2359.57 -1478.96C2359.57 -1480.29 2359.97 -1481.57 2360.17 -1482.85C2361.14 -1489.68 2362.35 -1496.41 2363.71 -1503.1C2364.23 -1505.57 2364.76 -1507.85 2365.32 -1510.55C2367.01 -1517.76 2368.86 -1524.78 2371.03 -1531.94C2371.75 -1534.27 2372.6 -1536.69 2373.36 -1538.87C2375.05 -1544.04 2376.9 -1549.16 2378.87 -1554.19C2379.91 -1556.85 2380.92 -1559.5 2382.04 -1562.11C2382.32 -1562.78 2382.53 -1563.49 2382.85 -1564.15C2382.85 -1564.15 2382.85 -1564.15 2382.85 -1564.15C2435.24 -1686.3 2554.09 -1746.87 2665.37 -1708.12C2665.26 -1697.97 2664.73 -1647.21 2663.76 -1555.85C2696.08 -1631.33 2714.04 -1673.26 2717.63 -1681.65C2808.58 -1620.2 2855.09 -1496.1 2832.44 -1375.36C2832.46 -1375.36 2832.66 -1375.36 2832.68 -1375.36C2832.32 -1373.32 2831.8 -1371.42 2831.4 -1369.38C2830.63 -1365.63 2829.83 -1361.93 2828.94 -1358.23C2827.82 -1353.49 2826.53 -1348.75 2825.2 -1344C2824.2 -1340.54 2823.23 -1337.03 2822.11 -1333.57C2820.46 -1328.54 2818.61 -1323.65 2816.76 -1318.77C2815.68 -1315.92 2814.71 -1312.98 2813.55 -1310.18C2808.96 -1299.13 2804.57 -1290.84 2803.58 -1288.69C2802.33 -1286.22 2800.92 -1283.95 2799.56 -1281.53C2796.98 -1276.78 2794.41 -1272.04 2791.52 -1267.63C2789.79 -1264.83 2787.94 -1262.17 2786.13 -1259.42C2783.48 -1255.49 2780.78 -1251.6 2778.09 -1247.85C2776.12 -1245.14 2774.07 -1242.58 2772.02 -1239.97C2769.09 -1236.32 2766.03 -1232.76 2762.89 -1229.25C2760.84 -1226.93 2758.87 -1224.51 2756.58 -1222.33C2753.05 -1218.63 2749.35 -1215.07 2745.61 -1211.61C2743.72 -1209.9 2741.87 -1208.05 2739.94 -1206.34C2734.23 -1201.6 2728.36 -1196.86 2722.29 -1192.35C2721.17 -1191.49 2719.92 -1190.83 2718.8 -1190.02C2713.69 -1186.51 2708.54 -1183.19 2703.24 -1180.11C2700.95 -1178.78 2698.62 -1177.64 2696.28 -1176.41C2691.94 -1174.09 2687.56 -1171.67 2683.06 -1169.86C2680.45 -1168.68 2677.79 -1167.59 2675.02 -1166.5C2670.6 -1164.74 2666.09 -1163.13 2661.55 -1161.75C2658.9 -1160.9 2656.2 -1160 2653.51 -1159.24C2648.61 -1157.86 2643.58 -1156.72 2638.52 -1155.68C2638.42 -1155.68 2637.65 -1155.68 2637.55 -1155.68C2642.5 -1050.42 2645.51 -966.17 2646.4 -945.11C2704.46 -1086.03 2848.34 -1144.73 2967.76 -1076.21C2972.02 -1073.77 2976.21 -1071.18 2980.34 -1068.45C2977.5 -1059.27 2963.32 -1013.42 2937.8 -930.88C2990.31 -990.37 3019.48 -1023.41 3025.32 -1030.02C3072.23 -979.41 3100.19 -908.9 3103.06 -833.97C3104.19 -807.69 3102.13 -781.35 3096.95 -755.75C3066.64 -603.11 2937.21 -508.37 2807.86 -544.14C2743.24 -562.01 2687.75 -610.59 2654.52 -678.38C2654.52 -671.26 2654.96 -664.15 2655.08 -656.99C2656.69 -583.27 2658.7 -491.53 2627.54 -409.61C2606.44 -354.11 2572.51 -309.04 2539.1 -268.63C2517.27 -242.3 2494.64 -216.87 2471.45 -192.26C2448.63 -156.05 2418.84 -126.79 2384.54 -106.87C2346.43 -72.2 2306.95 -39.61 2266.15 -9.53C2263.6 -7.66 2243.21 7.29 2240.66 9.16C2217.75 25.9 2194.27 43.12 2171.28 61.01C2175.3 60.53 2179.32 60.01 2183.34 59.77C2288.02 54.02 2383.83 128.83 2420.27 244.77C2410.25 254.4 2360.13 302.51 2269.93 389.12C2369.15 361.97 2424.28 346.88 2435.31 343.87C2435.14 500.77 2327.21 627.8 2194.25 627.6C2158.26 627.55 2122.75 617.98 2090.31 599.59C2095.86 607.85 2100.37 614.37 2101.49 616.01C2112.58 632.28 2121.21 645.12 2123.4 648.36C2221.24 794.56 2248.46 933.4 2200.02 1039.23C2194.13 1035.47 2146.98 1005.42 2141.09 1001.66C2188.24 898.68 2117.33 766.81 2070.86 697.36C2060.24 681.47 2051.46 668.76 2049.31 665.58C1986.8 573.93 1915.97 470.05 1917.7 342.63C1920.31 150.33 2078.33 34.77 2205.28 -58.11C2210.34 -61.82 2228.04 -74.8 2230.57 -76.65Z" id="b6Xzn1RHm7"></path><path d="M3553.94 1639.58C3553.94 1726.03 2662.72 1796.12 1563.34 1796.12C463.95 1796.12 -427.27 1726.03 -427.27 1639.58C-427.27 1553.13 463.95 1483.04 1563.34 1483.04C2662.72 1483.04 3553.94 1553.13 3553.94 1639.58Z" id="a1C0gF4S1I"></path><path d="M913.87 1633.51L915.96 1611.83L950.61 1254.21L1579.7 1254.21L1625.97 1611.83L1629.5 1638.92L1630.19 1644.32L1630.19 1644.32L913.87 1633.51Z" id="b2EO0AjZKA"></path><path d="M1272.01 1638.92L913.87 1633.51L915.96 1611.83L1625.97 1611.83L1629.5 1638.92L1629.5 1638.92L1272.01 1638.92Z" id="a2ksQwYbgL"></path><path d="M1745 1617.24C1745 1617.24 1745 1617.24 1745 1617.24C1745 1633.49 1745 1642.52 1745 1644.32C1745 1644.32 1745 1644.32 1745 1644.32C1174.69 1644.32 857.84 1644.32 794.48 1644.32C794.48 1644.32 794.48 1644.32 794.48 1644.32C794.48 1628.07 794.48 1619.04 794.48 1617.24C794.48 1617.24 794.48 1617.24 794.48 1617.24C1364.79 1617.24 1681.63 1617.24 1745 1617.24Z" id="a1jgF88hpM"></path><path d="M2651.9 -893.74C2652.06 -932.7 2625.42 -964.42 2592.41 -964.61C2592.41 -964.61 2592.41 -964.61 2592.41 -964.61C2326.96 -964.61 203.39 -964.61 -62.06 -964.61C-95.07 -964.43 -121.71 -932.7 -121.55 -893.74C-121.55 -893.74 -121.55 -893.74 -121.55 -893.74C-121.55 -767.16 -121.55 -134.27 -121.55 1004.93L2651.9 1004.93C2651.9 -7.69 2651.9 -640.58 2651.9 -893.74Z" id="bpVrZS27J"></path><path d="M-121.55 986.01C-121.55 1119.44 -121.55 1193.56 -121.55 1208.39C-121.55 1247.16 -94.92 1278.59 -62.06 1278.59C203.39 1278.59 2326.96 1278.59 2592.41 1278.59C2625.27 1278.59 2651.9 1247.16 2651.9 1208.39C2651.9 1193.56 2651.9 1119.44 2651.9 986.01L-121.55 986.01Z" id="bfy77w0b8"></path><path d="M2550.84 -845.4C2550.84 -845.4 2550.84 -845.4 2550.84 -845.4C2550.84 178.67 2550.84 747.61 2550.84 861.39C2550.84 861.39 2550.84 861.39 2550.84 861.39C1016.27 861.39 163.72 861.39 -6.78 861.39C-6.78 861.39 -6.78 861.39 -6.78 861.39C-6.78 -162.68 -6.78 -731.62 -6.78 -845.4C-6.78 -845.4 -6.78 -845.4 -6.78 -845.4C1527.79 -845.4 2380.33 -845.4 2550.84 -845.4Z" id="bHMWIUkZG"></path><path d="M1327.56 1166.26C1327.56 1166.26 1327.56 1166.26 1327.56 1166.26C1329.34 1163.6 1330.95 1160.8 1332.39 1157.87C1330.12 1157.43 1318.79 1155.23 1298.38 1151.27C1320.45 1151.47 1332.71 1151.58 1335.16 1151.61C1342.28 1133.29 1342.71 1112.34 1336.37 1093.64C1333.08 1095.65 1316.62 1105.73 1287 1123.86C1314.31 1100.18 1329.48 1087.02 1332.51 1084.39C1315.29 1049.47 1277.35 1037.63 1247.76 1057.95C1218.17 1078.26 1208.13 1123.04 1225.35 1157.96C1226.78 1160.85 1228.37 1163.63 1230.12 1166.26C1230.12 1166.26 1230.12 1166.26 1230.12 1166.26C1241.85 1183.9 1259.8 1194.2 1278.8 1194.2C1297.83 1194.23 1315.81 1183.93 1327.56 1166.26Z" id="joK1mloxq"></path><path d="M1626.69 1617.24L1582.83 1278.59L1340.91 1278.59L1340.91 1278.59L1626.69 1617.24Z" id="b6sB1ZQ30"></path><path d="M2100.77 1601.58C2086.82 1590.63 2072.34 1579.48 2055.86 1575.73C2041.43 1572.46 2026.48 1575.21 2011.64 1574.26C1986.05 1572.41 1961.95 1559.37 1944.07 1537.69C1933.53 1524.88 1925.29 1509.23 1912.63 1499.31C1899 1488.78 1881.72 1486.5 1865.6 1489.11C1860.9 1489.94 1856.24 1491.08 1851.65 1492.53C1844.39 1516.26 1840.69 1541.3 1840.71 1566.53C1840.71 1687.06 1923.53 1691.24 2025.63 1691.24C2075.2 1691.24 2120.22 1690.24 2153.43 1675.44C2152.87 1674.22 2148.43 1664.43 2147.88 1663.2C2142.6 1650.15 2135.94 1637.94 2128.06 1626.87C2119.85 1617.19 2110.69 1608.7 2100.77 1601.58Z" id="aiaVmH3Xp"></path><path d="M191.84 -186.94C191.84 -186.94 191.84 -186.94 191.84 -186.94C191.84 -168.67 191.84 -158.52 191.84 -156.49C191.84 -156.49 191.84 -156.49 191.84 -156.49C140.83 -156.49 112.49 -156.49 106.82 -156.49C106.82 -156.49 106.82 -156.49 106.82 -156.49C106.82 -174.76 106.82 -184.91 106.82 -186.94C106.82 -186.94 106.82 -186.94 106.82 -186.94C157.83 -186.94 186.17 -186.94 191.84 -186.94Z" id="c1ldRebWKw"></path><path d="M2460.51 -186.04C2460.51 -186.04 2460.51 -186.04 2460.51 -186.04C2460.51 -167.77 2460.51 -157.62 2460.51 -155.59C2460.51 -155.59 2460.51 -155.59 2460.51 -155.59C2409.5 -155.59 2381.16 -155.59 2375.49 -155.59C2375.49 -155.59 2375.49 -155.59 2375.49 -155.59C2375.49 -173.86 2375.49 -184.01 2375.49 -186.04C2375.49 -186.04 2375.49 -186.04 2375.49 -186.04C2426.5 -186.04 2454.84 -186.04 2460.51 -186.04Z" id="b2khqR88xM"></path><path d="M192.61 27.14C192.61 27.14 192.61 27.14 192.61 27.14C192.61 45.41 192.61 55.56 192.61 57.59C192.61 57.59 192.61 57.59 192.61 57.59C141.59 57.59 113.25 57.59 107.58 57.59C107.58 57.59 107.58 57.59 107.58 57.59C107.58 39.32 107.58 29.17 107.58 27.14C107.58 27.14 107.58 27.14 107.58 27.14C158.6 27.14 186.94 27.14 192.61 27.14Z" id="a1ZMfRQT1H"></path><path d="M193.37 241.21C193.37 241.21 193.37 241.21 193.37 241.21C193.37 259.49 193.37 269.64 193.37 271.67C193.37 271.67 193.37 271.67 193.37 271.67C142.36 271.67 114.02 271.67 108.35 271.67C108.35 271.67 108.35 271.67 108.35 271.67C108.35 253.4 108.35 243.24 108.35 241.21C108.35 241.21 108.35 241.21 108.35 241.21C159.36 241.21 187.7 241.21 193.37 241.21Z" id="aTJQNamUr"></path><path d="M194.13 455.25C194.13 455.25 194.13 455.25 194.13 455.25C194.13 473.52 194.13 483.67 194.13 485.7C194.13 485.7 194.13 485.7 194.13 485.7C143.12 485.7 114.78 485.7 109.11 485.7C109.11 485.7 109.11 485.7 109.11 485.7C109.11 467.43 109.11 457.28 109.11 455.25C109.11 455.25 109.11 455.25 109.11 455.25C160.13 455.25 188.47 455.25 194.13 455.25Z" id="c14ToecFY5"></path><path d="M215.96 -172.29C215.96 -172.29 215.96 -172.29 215.96 -172.29C215.96 -171.57 215.96 -171.18 215.96 -171.1C215.96 -171.1 215.96 -171.1 215.96 -171.1C201.49 -171.1 193.45 -171.1 191.84 -171.1C191.84 -171.1 191.84 -171.1 191.84 -171.1C191.84 -171.81 191.84 -172.21 191.84 -172.29C191.84 -172.29 191.84 -172.29 191.84 -172.29C206.31 -172.29 214.35 -172.29 215.96 -172.29Z" id="g13UiuiW06"></path><path d="M2302.45 -171.1L2255.05 -171.1L2255.05 -172.29L2302.45 -172.29L2302.45 -171.1ZM2207.62 -171.1L2160.22 -171.1L2160.22 -172.29L2207.62 -172.29L2207.62 -171.1ZM2112.79 -171.1L2065.35 -171.1L2065.35 -172.29L2112.79 -172.29L2112.79 -171.1ZM2017.95 -171.1L1970.52 -171.1L1970.52 -172.29L2017.95 -172.29L2017.95 -171.1ZM1923.12 -171.1L1875.69 -171.1L1875.69 -172.29L1923.12 -172.29L1923.12 -171.1ZM1828.25 -171.1L1780.86 -171.1L1780.86 -172.29L1828.25 -172.29L1828.25 -171.1ZM1733.42 -171.1L1685.99 -171.1L1685.99 -172.29L1733.42 -172.29L1733.42 -171.1ZM1638.59 -171.1L1591.15 -171.1L1591.15 -172.29L1638.59 -172.29L1638.59 -171.1ZM1543.76 -171.1L1496.32 -171.1L1496.32 -172.29L1543.76 -172.29L1543.76 -171.1ZM1448.89 -171.1L1401.49 -171.1L1401.49 -172.29L1448.89 -172.29L1448.89 -171.1ZM1354.06 -171.1L1306.62 -171.1L1306.62 -172.29L1354.06 -172.29L1354.06 -171.1ZM1259.23 -171.1L1211.79 -171.1L1211.79 -172.29L1259.23 -172.29L1259.23 -171.1ZM1164.39 -171.1L1116.96 -171.1L1116.96 -172.29L1164.39 -172.29L1164.39 -171.1ZM1069.52 -171.1L1022.13 -171.1L1022.13 -172.29L1069.52 -172.29L1069.52 -171.1ZM974.69 -171.1L927.3 -171.1L927.3 -172.29L974.69 -172.29L974.69 -171.1ZM879.86 -171.1L832.59 -171.1L832.59 -172.29L880.02 -172.29L879.86 -171.1ZM785.03 -171.1L737.59 -171.1L737.59 -172.29L785.03 -172.29L785.03 -171.1ZM690.16 -171.1L642.76 -171.1L642.76 -172.29L690.16 -172.29L690.16 -171.1ZM595.33 -171.1L547.93 -171.1L547.93 -172.29L595.41 -172.29L595.33 -171.1ZM500.5 -171.1L453.06 -171.1L453.06 -172.29L500.5 -172.29L500.5 -171.1ZM405.67 -171.1L358.23 -171.1L358.23 -172.29L405.67 -172.29L405.67 -171.1ZM310.79 -171.1L263.4 -171.1L263.4 -172.29L310.79 -172.29L310.79 -171.1Z" id="b4eGlNZhQs"></path><path d="M2374 -172.29C2374 -172.29 2374 -172.29 2374 -172.29C2374 -171.57 2374 -171.18 2374 -171.1C2374 -171.1 2374 -171.1 2374 -171.1C2359.53 -171.1 2351.49 -171.1 2349.88 -171.1C2349.88 -171.1 2349.88 -171.1 2349.88 -171.1C2349.88 -171.81 2349.88 -172.21 2349.88 -172.29C2349.88 -172.29 2349.88 -172.29 2349.88 -172.29C2364.36 -172.29 2372.4 -172.29 2374 -172.29Z" id="bXkzSnEhb"></path><path d="M215.96 -172.29C215.96 -172.29 215.96 -172.29 215.96 -172.29C215.96 -171.57 215.96 -171.18 215.96 -171.1C215.96 -171.1 215.96 -171.1 215.96 -171.1C201.49 -171.1 193.45 -171.1 191.84 -171.1C191.84 -171.1 191.84 -171.1 191.84 -171.1C191.84 -171.81 191.84 -172.21 191.84 -172.29C191.84 -172.29 191.84 -172.29 191.84 -172.29C206.31 -172.29 214.35 -172.29 215.96 -172.29Z" id="a1ocwyFcRz"></path><path d="M2302.45 -171.1L2255.05 -171.1L2255.05 -172.29L2302.45 -172.29L2302.45 -171.1ZM2207.62 -171.1L2160.22 -171.1L2160.22 -172.29L2207.62 -172.29L2207.62 -171.1ZM2112.79 -171.1L2065.35 -171.1L2065.35 -172.29L2112.79 -172.29L2112.79 -171.1ZM2017.95 -171.1L1970.52 -171.1L1970.52 -172.29L2017.95 -172.29L2017.95 -171.1ZM1923.12 -171.1L1875.69 -171.1L1875.69 -172.29L1923.12 -172.29L1923.12 -171.1ZM1828.25 -171.1L1780.86 -171.1L1780.86 -172.29L1828.25 -172.29L1828.25 -171.1ZM1733.42 -171.1L1685.99 -171.1L1685.99 -172.29L1733.42 -172.29L1733.42 -171.1ZM1638.59 -171.1L1591.15 -171.1L1591.15 -172.29L1638.59 -172.29L1638.59 -171.1ZM1543.76 -171.1L1496.32 -171.1L1496.32 -172.29L1543.76 -172.29L1543.76 -171.1ZM1448.89 -171.1L1401.49 -171.1L1401.49 -172.29L1448.89 -172.29L1448.89 -171.1ZM1354.06 -171.1L1306.62 -171.1L1306.62 -172.29L1354.06 -172.29L1354.06 -171.1ZM1259.23 -171.1L1211.79 -171.1L1211.79 -172.29L1259.23 -172.29L1259.23 -171.1ZM1164.39 -171.1L1116.96 -171.1L1116.96 -172.29L1164.39 -172.29L1164.39 -171.1ZM1069.52 -171.1L1022.13 -171.1L1022.13 -172.29L1069.52 -172.29L1069.52 -171.1ZM974.69 -171.1L927.3 -171.1L927.3 -172.29L974.69 -172.29L974.69 -171.1ZM879.86 -171.1L832.59 -171.1L832.59 -172.29L880.02 -172.29L879.86 -171.1ZM785.03 -171.1L737.59 -171.1L737.59 -172.29L785.03 -172.29L785.03 -171.1ZM690.16 -171.1L642.76 -171.1L642.76 -172.29L690.16 -172.29L690.16 -171.1ZM595.33 -171.1L547.93 -171.1L547.93 -172.29L595.41 -172.29L595.33 -171.1ZM500.5 -171.1L453.06 -171.1L453.06 -172.29L500.5 -172.29L500.5 -171.1ZM405.67 -171.1L358.23 -171.1L358.23 -172.29L405.67 -172.29L405.67 -171.1ZM310.79 -171.1L263.4 -171.1L263.4 -172.29L310.79 -172.29L310.79 -171.1Z" id="e1RYNIRd99"></path><path d="M2374 -172.29C2374 -172.29 2374 -172.29 2374 -172.29C2374 -171.57 2374 -171.18 2374 -171.1C2374 -171.1 2374 -171.1 2374 -171.1C2359.53 -171.1 2351.49 -171.1 2349.88 -171.1C2349.88 -171.1 2349.88 -171.1 2349.88 -171.1C2349.88 -171.81 2349.88 -172.21 2349.88 -172.29C2349.88 -172.29 2349.88 -172.29 2349.88 -172.29C2364.36 -172.29 2372.4 -172.29 2374 -172.29Z" id="mhUeh5bvj"></path><path d="M191.84 -400.4C191.84 -400.4 191.84 -400.4 191.84 -400.4C191.84 -382.13 191.84 -371.98 191.84 -369.95C191.84 -369.95 191.84 -369.95 191.84 -369.95C140.83 -369.95 112.49 -369.95 106.82 -369.95C106.82 -369.95 106.82 -369.95 106.82 -369.95C106.82 -388.22 106.82 -398.37 106.82 -400.4C106.82 -400.4 106.82 -400.4 106.82 -400.4C157.83 -400.4 186.17 -400.4 191.84 -400.4Z" id="c2ksZ1UeJz"></path><path d="M2460.51 -399.5C2460.51 -399.5 2460.51 -399.5 2460.51 -399.5C2460.51 -381.23 2460.51 -371.08 2460.51 -369.05C2460.51 -369.05 2460.51 -369.05 2460.51 -369.05C2409.5 -369.05 2381.16 -369.05 2375.49 -369.05C2375.49 -369.05 2375.49 -369.05 2375.49 -369.05C2375.49 -387.32 2375.49 -397.47 2375.49 -399.5C2375.49 -399.5 2375.49 -399.5 2375.49 -399.5C2426.5 -399.5 2454.84 -399.5 2460.51 -399.5Z" id="b9XiIwvcM"></path><path d="M215.96 -385.75C215.96 -385.75 215.96 -385.75 215.96 -385.75C215.96 -385.04 215.96 -384.64 215.96 -384.56C215.96 -384.56 215.96 -384.56 215.96 -384.56C201.49 -384.56 193.45 -384.56 191.84 -384.56C191.84 -384.56 191.84 -384.56 191.84 -384.56C191.84 -385.27 191.84 -385.67 191.84 -385.75C191.84 -385.75 191.84 -385.75 191.84 -385.75C206.31 -385.75 214.35 -385.75 215.96 -385.75Z" id="altU5F7P3"></path><path d="M2302.45 -384.56L2255.05 -384.56L2255.05 -385.75L2302.45 -385.75L2302.45 -384.56ZM2207.62 -384.56L2160.22 -384.56L2160.22 -385.75L2207.62 -385.75L2207.62 -384.56ZM2112.79 -384.56L2065.35 -384.56L2065.35 -385.75L2112.79 -385.75L2112.79 -384.56ZM2017.95 -384.56L1970.52 -384.56L1970.52 -385.75L2017.95 -385.75L2017.95 -384.56ZM1923.12 -384.56L1875.69 -384.56L1875.69 -385.75L1923.12 -385.75L1923.12 -384.56ZM1828.25 -384.56L1780.86 -384.56L1780.86 -385.75L1828.25 -385.75L1828.25 -384.56ZM1733.42 -384.56L1685.99 -384.56L1685.99 -385.75L1733.42 -385.75L1733.42 -384.56ZM1638.59 -384.56L1591.15 -384.56L1591.15 -385.75L1638.59 -385.75L1638.59 -384.56ZM1543.76 -384.56L1496.32 -384.56L1496.32 -385.75L1543.76 -385.75L1543.76 -384.56ZM1448.89 -384.56L1401.49 -384.56L1401.49 -385.75L1448.89 -385.75L1448.89 -384.56ZM1354.06 -384.56L1306.62 -384.56L1306.62 -385.75L1354.06 -385.75L1354.06 -384.56ZM1259.23 -384.56L1211.79 -384.56L1211.79 -385.75L1259.23 -385.75L1259.23 -384.56ZM1164.39 -384.56L1116.96 -384.56L1116.96 -385.75L1164.39 -385.75L1164.39 -384.56ZM1069.52 -384.56L1022.13 -384.56L1022.13 -385.75L1069.52 -385.75L1069.52 -384.56ZM974.69 -384.56L927.3 -384.56L927.3 -385.75L974.69 -385.75L974.69 -384.56ZM879.86 -384.56L832.59 -384.56L832.59 -385.75L880.02 -385.75L879.86 -384.56ZM785.03 -384.56L737.59 -384.56L737.59 -385.75L785.03 -385.75L785.03 -384.56ZM690.16 -384.56L642.76 -384.56L642.76 -385.75L690.16 -385.75L690.16 -384.56ZM595.33 -384.56L547.93 -384.56L547.93 -385.75L595.41 -385.75L595.33 -384.56ZM500.5 -384.56L453.06 -384.56L453.06 -385.75L500.5 -385.75L500.5 -384.56ZM405.67 -384.56L358.23 -384.56L358.23 -385.75L405.67 -385.75L405.67 -384.56ZM310.79 -384.56L263.4 -384.56L263.4 -385.75L310.79 -385.75L310.79 -384.56Z" id="ceMV8jFd0"></path><path d="M2374 -385.75C2374 -385.75 2374 -385.75 2374 -385.75C2374 -385.04 2374 -384.64 2374 -384.56C2374 -384.56 2374 -384.56 2374 -384.56C2359.53 -384.56 2351.49 -384.56 2349.88 -384.56C2349.88 -384.56 2349.88 -384.56 2349.88 -384.56C2349.88 -385.27 2349.88 -385.67 2349.88 -385.75C2349.88 -385.75 2349.88 -385.75 2349.88 -385.75C2364.36 -385.75 2372.4 -385.75 2374 -385.75Z" id="aHCJy1ig6"></path><path d="M2460.51 27.14C2460.51 27.14 2460.51 27.14 2460.51 27.14C2460.51 45.41 2460.51 55.56 2460.51 57.59C2460.51 57.59 2460.51 57.59 2460.51 57.59C2409.5 57.59 2381.16 57.59 2375.49 57.59C2375.49 57.59 2375.49 57.59 2375.49 57.59C2375.49 39.32 2375.49 29.17 2375.49 27.14C2375.49 27.14 2375.49 27.14 2375.49 27.14C2426.5 27.14 2454.84 27.14 2460.51 27.14Z" id="di5UmZ98v"></path><path d="M215.96 40.89C215.96 40.89 215.96 40.89 215.96 40.89C215.96 41.6 215.96 42 215.96 42.08C215.96 42.08 215.96 42.08 215.96 42.08C201.49 42.08 193.45 42.08 191.84 42.08C191.84 42.08 191.84 42.08 191.84 42.08C191.84 41.37 191.84 40.97 191.84 40.89C191.84 40.89 191.84 40.89 191.84 40.89C206.31 40.89 214.35 40.89 215.96 40.89Z" id="cv94lWIuV"></path><path d="M2302.45 42.03L2255.05 42.03L2255.05 40.84L2302.45 40.84L2302.45 42.03ZM2207.62 42.03L2160.22 42.03L2160.22 40.84L2207.62 40.84L2207.62 42.03ZM2112.79 42.03L2065.35 42.03L2065.35 40.84L2112.79 40.84L2112.79 42.03ZM2017.95 42.03L1970.52 42.03L1970.52 40.84L2017.95 40.84L2017.95 42.03ZM1923.12 42.03L1875.69 42.03L1875.69 40.84L1923.12 40.84L1923.12 42.03ZM1828.25 42.03L1780.86 42.03L1780.86 40.84L1828.25 40.84L1828.25 42.03ZM1733.42 42.03L1685.99 42.03L1685.99 40.84L1733.42 40.84L1733.42 42.03ZM1638.59 42.03L1591.15 42.03L1591.15 40.84L1638.59 40.84L1638.59 42.03ZM1543.76 42.03L1496.32 42.03L1496.32 40.84L1543.76 40.84L1543.76 42.03ZM1448.89 42.03L1401.49 42.03L1401.49 40.84L1448.89 40.84L1448.89 42.03ZM1354.06 42.03L1306.62 42.03L1306.62 40.84L1354.06 40.84L1354.06 42.03ZM1259.23 42.03L1211.79 42.03L1211.79 40.84L1259.23 40.84L1259.23 42.03ZM1164.39 42.03L1116.96 42.03L1116.96 40.84L1164.39 40.84L1164.39 42.03ZM1069.52 42.03L1022.13 42.03L1022.13 40.84L1069.52 40.84L1069.52 42.03ZM974.69 42.03L927.3 42.03L927.3 40.84L974.69 40.84L974.69 42.03ZM879.86 42.03L832.59 42.03L832.59 40.84L880.02 40.84L879.86 42.03ZM785.03 42.03L737.59 42.03L737.59 40.84L785.03 40.84L785.03 42.03ZM690.16 42.03L642.76 42.03L642.76 40.84L690.16 40.84L690.16 42.03ZM595.33 42.03L547.93 42.03L547.93 40.84L595.41 40.84L595.33 42.03ZM500.5 42.03L453.06 42.03L453.06 40.84L500.5 40.84L500.5 42.03ZM405.67 42.03L358.23 42.03L358.23 40.84L405.67 40.84L405.67 42.03ZM310.79 42.03L263.4 42.03L263.4 40.84L310.79 40.84L310.79 42.03Z" id="a3JfXUE3aC"></path><path d="M2374 40.89C2374 40.89 2374 40.89 2374 40.89C2374 41.6 2374 42 2374 42.08C2374 42.08 2374 42.08 2374 42.08C2359.53 42.08 2351.49 42.08 2349.88 42.08C2349.88 42.08 2349.88 42.08 2349.88 42.08C2349.88 41.37 2349.88 40.97 2349.88 40.89C2349.88 40.89 2349.88 40.89 2349.88 40.89C2364.36 40.89 2372.4 40.89 2374 40.89Z" id="a33T7eIw4y"></path><path d="M215.96 40.89C215.96 40.89 215.96 40.89 215.96 40.89C215.96 41.6 215.96 42 215.96 42.08C215.96 42.08 215.96 42.08 215.96 42.08C201.49 42.08 193.45 42.08 191.84 42.08C191.84 42.08 191.84 42.08 191.84 42.08C191.84 41.37 191.84 40.97 191.84 40.89C191.84 40.89 191.84 40.89 191.84 40.89C206.31 40.89 214.35 40.89 215.96 40.89Z" id="f4QwQpjie7"></path><path d="M2302.45 42.03L2255.05 42.03L2255.05 40.84L2302.45 40.84L2302.45 42.03ZM2207.62 42.03L2160.22 42.03L2160.22 40.84L2207.62 40.84L2207.62 42.03ZM2112.79 42.03L2065.35 42.03L2065.35 40.84L2112.79 40.84L2112.79 42.03ZM2017.95 42.03L1970.52 42.03L1970.52 40.84L2017.95 40.84L2017.95 42.03ZM1923.12 42.03L1875.69 42.03L1875.69 40.84L1923.12 40.84L1923.12 42.03ZM1828.25 42.03L1780.86 42.03L1780.86 40.84L1828.25 40.84L1828.25 42.03ZM1733.42 42.03L1685.99 42.03L1685.99 40.84L1733.42 40.84L1733.42 42.03ZM1638.59 42.03L1591.15 42.03L1591.15 40.84L1638.59 40.84L1638.59 42.03ZM1543.76 42.03L1496.32 42.03L1496.32 40.84L1543.76 40.84L1543.76 42.03ZM1448.89 42.03L1401.49 42.03L1401.49 40.84L1448.89 40.84L1448.89 42.03ZM1354.06 42.03L1306.62 42.03L1306.62 40.84L1354.06 40.84L1354.06 42.03ZM1259.23 42.03L1211.79 42.03L1211.79 40.84L1259.23 40.84L1259.23 42.03ZM1164.39 42.03L1116.96 42.03L1116.96 40.84L1164.39 40.84L1164.39 42.03ZM1069.52 42.03L1022.13 42.03L1022.13 40.84L1069.52 40.84L1069.52 42.03ZM974.69 42.03L927.3 42.03L927.3 40.84L974.69 40.84L974.69 42.03ZM879.86 42.03L832.59 42.03L832.59 40.84L880.02 40.84L879.86 42.03ZM785.03 42.03L737.59 42.03L737.59 40.84L785.03 40.84L785.03 42.03ZM690.16 42.03L642.76 42.03L642.76 40.84L690.16 40.84L690.16 42.03ZM595.33 42.03L547.93 42.03L547.93 40.84L595.41 40.84L595.33 42.03ZM500.5 42.03L453.06 42.03L453.06 40.84L500.5 40.84L500.5 42.03ZM405.67 42.03L358.23 42.03L358.23 40.84L405.67 40.84L405.67 42.03ZM310.79 42.03L263.4 42.03L263.4 40.84L310.79 40.84L310.79 42.03Z" id="gHqtjyXDG"></path><path d="M2374 40.89C2374 40.89 2374 40.89 2374 40.89C2374 41.6 2374 42 2374 42.08C2374 42.08 2374 42.08 2374 42.08C2359.53 42.08 2351.49 42.08 2349.88 42.08C2349.88 42.08 2349.88 42.08 2349.88 42.08C2349.88 41.37 2349.88 40.97 2349.88 40.89C2349.88 40.89 2349.88 40.89 2349.88 40.89C2364.36 40.89 2372.4 40.89 2374 40.89Z" id="c5RUIV51L1"></path><path d="M2460.51 240.31C2460.51 240.31 2460.51 240.31 2460.51 240.31C2460.51 258.59 2460.51 268.74 2460.51 270.77C2460.51 270.77 2460.51 270.77 2460.51 270.77C2409.5 270.77 2381.16 270.77 2375.49 270.77C2375.49 270.77 2375.49 270.77 2375.49 270.77C2375.49 252.49 2375.49 242.34 2375.49 240.31C2375.49 240.31 2375.49 240.31 2375.49 240.31C2426.5 240.31 2454.84 240.31 2460.51 240.31Z" id="c1hohUmoFg"></path><path d="M215.96 254.02C215.96 254.02 215.96 254.02 215.96 254.02C215.96 254.73 215.96 255.13 215.96 255.21C215.96 255.21 215.96 255.21 215.96 255.21C201.49 255.21 193.45 255.21 191.84 255.21C191.84 255.21 191.84 255.21 191.84 255.21C191.84 254.5 191.84 254.1 191.84 254.02C191.84 254.02 191.84 254.02 191.84 254.02C206.31 254.02 214.35 254.02 215.96 254.02Z" id="c1oa6iuwAf"></path><path d="M2302.45 255.21L2255.05 255.21L2255.05 254.02L2302.45 254.02L2302.45 255.21ZM2207.62 255.21L2160.22 255.21L2160.22 254.02L2207.62 254.02L2207.62 255.21ZM2112.79 255.21L2065.35 255.21L2065.35 254.02L2112.79 254.02L2112.79 255.21ZM2017.95 255.21L1970.52 255.21L1970.52 254.02L2017.95 254.02L2017.95 255.21ZM1923.12 255.21L1875.69 255.21L1875.69 254.02L1923.12 254.02L1923.12 255.21ZM1828.25 255.21L1780.86 255.21L1780.86 254.02L1828.25 254.02L1828.25 255.21ZM1733.42 255.21L1685.99 255.21L1685.99 254.02L1733.42 254.02L1733.42 255.21ZM1638.59 255.21L1591.15 255.21L1591.15 254.02L1638.59 254.02L1638.59 255.21ZM1543.76 255.21L1496.32 255.21L1496.32 254.02L1543.76 254.02L1543.76 255.21ZM1448.89 255.21L1401.49 255.21L1401.49 254.02L1448.89 254.02L1448.89 255.21ZM1354.06 255.21L1306.62 255.21L1306.62 254.02L1354.06 254.02L1354.06 255.21ZM1259.23 255.21L1211.79 255.21L1211.79 254.02L1259.23 254.02L1259.23 255.21ZM1164.39 255.21L1116.96 255.21L1116.96 254.02L1164.39 254.02L1164.39 255.21ZM1069.52 255.21L1022.13 255.21L1022.13 254.02L1069.52 254.02L1069.52 255.21ZM974.69 255.21L927.3 255.21L927.3 254.02L974.69 254.02L974.69 255.21ZM879.86 255.21L832.59 255.21L832.59 254.02L880.02 254.02L879.86 255.21ZM785.03 255.21L737.59 255.21L737.59 254.02L785.03 254.02L785.03 255.21ZM690.16 255.21L642.76 255.21L642.76 254.02L690.16 254.02L690.16 255.21ZM595.33 255.21L547.93 255.21L547.93 254.02L595.41 254.02L595.33 255.21ZM500.5 255.21L453.06 255.21L453.06 254.02L500.5 254.02L500.5 255.21ZM405.67 255.21L358.23 255.21L358.23 254.02L405.67 254.02L405.67 255.21ZM310.79 255.21L263.4 255.21L263.4 254.02L310.79 254.02L310.79 255.21Z" id="h5P5Pgbhqb"></path><path d="M2374 254.02C2374 254.02 2374 254.02 2374 254.02C2374 254.73 2374 255.13 2374 255.21C2374 255.21 2374 255.21 2374 255.21C2359.53 255.21 2351.49 255.21 2349.88 255.21C2349.88 255.21 2349.88 255.21 2349.88 255.21C2349.88 254.5 2349.88 254.1 2349.88 254.02C2349.88 254.02 2349.88 254.02 2349.88 254.02C2364.36 254.02 2372.4 254.02 2374 254.02Z" id="cGjVvp8HJ"></path><path d="M215.96 254.02C215.96 254.02 215.96 254.02 215.96 254.02C215.96 254.73 215.96 255.13 215.96 255.21C215.96 255.21 215.96 255.21 215.96 255.21C201.49 255.21 193.45 255.21 191.84 255.21C191.84 255.21 191.84 255.21 191.84 255.21C191.84 254.5 191.84 254.1 191.84 254.02C191.84 254.02 191.84 254.02 191.84 254.02C206.31 254.02 214.35 254.02 215.96 254.02Z" id="a2Arto8lb"></path><path d="M2302.45 255.21L2255.05 255.21L2255.05 254.02L2302.45 254.02L2302.45 255.21ZM2207.62 255.21L2160.22 255.21L2160.22 254.02L2207.62 254.02L2207.62 255.21ZM2112.79 255.21L2065.35 255.21L2065.35 254.02L2112.79 254.02L2112.79 255.21ZM2017.95 255.21L1970.52 255.21L1970.52 254.02L2017.95 254.02L2017.95 255.21ZM1923.12 255.21L1875.69 255.21L1875.69 254.02L1923.12 254.02L1923.12 255.21ZM1828.25 255.21L1780.86 255.21L1780.86 254.02L1828.25 254.02L1828.25 255.21ZM1733.42 255.21L1685.99 255.21L1685.99 254.02L1733.42 254.02L1733.42 255.21ZM1638.59 255.21L1591.15 255.21L1591.15 254.02L1638.59 254.02L1638.59 255.21ZM1543.76 255.21L1496.32 255.21L1496.32 254.02L1543.76 254.02L1543.76 255.21ZM1448.89 255.21L1401.49 255.21L1401.49 254.02L1448.89 254.02L1448.89 255.21ZM1354.06 255.21L1306.62 255.21L1306.62 254.02L1354.06 254.02L1354.06 255.21ZM1259.23 255.21L1211.79 255.21L1211.79 254.02L1259.23 254.02L1259.23 255.21ZM1164.39 255.21L1116.96 255.21L1116.96 254.02L1164.39 254.02L1164.39 255.21ZM1069.52 255.21L1022.13 255.21L1022.13 254.02L1069.52 254.02L1069.52 255.21ZM974.69 255.21L927.3 255.21L927.3 254.02L974.69 254.02L974.69 255.21ZM879.86 255.21L832.59 255.21L832.59 254.02L880.02 254.02L879.86 255.21ZM785.03 255.21L737.59 255.21L737.59 254.02L785.03 254.02L785.03 255.21ZM690.16 255.21L642.76 255.21L642.76 254.02L690.16 254.02L690.16 255.21ZM595.33 255.21L547.93 255.21L547.93 254.02L595.41 254.02L595.33 255.21ZM500.5 255.21L453.06 255.21L453.06 254.02L500.5 254.02L500.5 255.21ZM405.67 255.21L358.23 255.21L358.23 254.02L405.67 254.02L405.67 255.21ZM310.79 255.21L263.4 255.21L263.4 254.02L310.79 254.02L310.79 255.21Z" id="hjlurByJ2"></path><path d="M2374 254.02C2374 254.02 2374 254.02 2374 254.02C2374 254.73 2374 255.13 2374 255.21C2374 255.21 2374 255.21 2374 255.21C2359.53 255.21 2351.49 255.21 2349.88 255.21C2349.88 255.21 2349.88 255.21 2349.88 255.21C2349.88 254.5 2349.88 254.1 2349.88 254.02C2349.88 254.02 2349.88 254.02 2349.88 254.02C2364.36 254.02 2372.4 254.02 2374 254.02Z" id="fuIIduUDX"></path><path d="M2460.51 453.44C2460.51 453.44 2460.51 453.44 2460.51 453.44C2460.51 471.72 2460.51 481.87 2460.51 483.9C2460.51 483.9 2460.51 483.9 2460.51 483.9C2409.5 483.9 2381.16 483.9 2375.49 483.9C2375.49 483.9 2375.49 483.9 2375.49 483.9C2375.49 465.62 2375.49 455.47 2375.49 453.44C2375.49 453.44 2375.49 453.44 2375.49 453.44C2426.5 453.44 2454.84 453.44 2460.51 453.44Z" id="b8GrkaPZg"></path><path d="M215.96 467.2C215.96 467.2 215.96 467.2 215.96 467.2C215.96 467.91 215.96 468.31 215.96 468.39C215.96 468.39 215.96 468.39 215.96 468.39C201.49 468.39 193.45 468.39 191.84 468.39C191.84 468.39 191.84 468.39 191.84 468.39C191.84 467.67 191.84 467.28 191.84 467.2C191.84 467.2 191.84 467.2 191.84 467.2C206.31 467.2 214.35 467.2 215.96 467.2Z" id="a8WaegiBW"></path><path d="M2302.45 468.39L2255.05 468.39L2255.05 467.2L2302.45 467.2L2302.45 468.39ZM2207.62 468.39L2160.22 468.39L2160.22 467.2L2207.62 467.2L2207.62 468.39ZM2112.79 468.39L2065.35 468.39L2065.35 467.2L2112.79 467.2L2112.79 468.39ZM2017.95 468.39L1970.52 468.39L1970.52 467.2L2017.95 467.2L2017.95 468.39ZM1923.12 468.39L1875.69 468.39L1875.69 467.2L1923.12 467.2L1923.12 468.39ZM1828.25 468.39L1780.86 468.39L1780.86 467.2L1828.25 467.2L1828.25 468.39ZM1733.42 468.39L1685.99 468.39L1685.99 467.2L1733.42 467.2L1733.42 468.39ZM1638.59 468.39L1591.15 468.39L1591.15 467.2L1638.59 467.2L1638.59 468.39ZM1543.76 468.39L1496.32 468.39L1496.32 467.2L1543.76 467.2L1543.76 468.39ZM1448.89 468.39L1401.49 468.39L1401.49 467.2L1448.89 467.2L1448.89 468.39ZM1354.06 468.39L1306.62 468.39L1306.62 467.2L1354.06 467.2L1354.06 468.39ZM1259.23 468.39L1211.79 468.39L1211.79 467.2L1259.23 467.2L1259.23 468.39ZM1164.39 468.39L1116.96 468.39L1116.96 467.2L1164.39 467.2L1164.39 468.39ZM1069.52 468.39L1022.13 468.39L1022.13 467.2L1069.52 467.2L1069.52 468.39ZM974.69 468.39L927.3 468.39L927.3 467.2L974.69 467.2L974.69 468.39ZM879.86 468.39L832.59 468.39L832.59 467.2L880.02 467.2L879.86 468.39ZM785.03 468.39L737.59 468.39L737.59 467.2L785.03 467.2L785.03 468.39ZM690.16 468.39L642.76 468.39L642.76 467.2L690.16 467.2L690.16 468.39ZM595.33 468.39L547.93 468.39L547.93 467.2L595.41 467.2L595.33 468.39ZM500.5 468.39L453.06 468.39L453.06 467.2L500.5 467.2L500.5 468.39ZM405.67 468.39L358.23 468.39L358.23 467.2L405.67 467.2L405.67 468.39ZM310.79 468.39L263.4 468.39L263.4 467.2L310.79 467.2L310.79 468.39Z" id="b2SPX5to3n"></path><path d="M2374 467.2C2374 467.2 2374 467.2 2374 467.2C2374 467.91 2374 468.31 2374 468.39C2374 468.39 2374 468.39 2374 468.39C2359.53 468.39 2351.49 468.39 2349.88 468.39C2349.88 468.39 2349.88 468.39 2349.88 468.39C2349.88 467.67 2349.88 467.28 2349.88 467.2C2349.88 467.2 2349.88 467.2 2349.88 467.2C2364.36 467.2 2372.4 467.2 2374 467.2Z" id="aKbM3ep14"></path><path d="M215.96 467.2C215.96 467.2 215.96 467.2 215.96 467.2C215.96 467.91 215.96 468.31 215.96 468.39C215.96 468.39 215.96 468.39 215.96 468.39C201.49 468.39 193.45 468.39 191.84 468.39C191.84 468.39 191.84 468.39 191.84 468.39C191.84 467.67 191.84 467.28 191.84 467.2C191.84 467.2 191.84 467.2 191.84 467.2C206.31 467.2 214.35 467.2 215.96 467.2Z" id="acrZ97WSb"></path><path d="M2302.45 468.39L2255.05 468.39L2255.05 467.2L2302.45 467.2L2302.45 468.39ZM2207.62 468.39L2160.22 468.39L2160.22 467.2L2207.62 467.2L2207.62 468.39ZM2112.79 468.39L2065.35 468.39L2065.35 467.2L2112.79 467.2L2112.79 468.39ZM2017.95 468.39L1970.52 468.39L1970.52 467.2L2017.95 467.2L2017.95 468.39ZM1923.12 468.39L1875.69 468.39L1875.69 467.2L1923.12 467.2L1923.12 468.39ZM1828.25 468.39L1780.86 468.39L1780.86 467.2L1828.25 467.2L1828.25 468.39ZM1733.42 468.39L1685.99 468.39L1685.99 467.2L1733.42 467.2L1733.42 468.39ZM1638.59 468.39L1591.15 468.39L1591.15 467.2L1638.59 467.2L1638.59 468.39ZM1543.76 468.39L1496.32 468.39L1496.32 467.2L1543.76 467.2L1543.76 468.39ZM1448.89 468.39L1401.49 468.39L1401.49 467.2L1448.89 467.2L1448.89 468.39ZM1354.06 468.39L1306.62 468.39L1306.62 467.2L1354.06 467.2L1354.06 468.39ZM1259.23 468.39L1211.79 468.39L1211.79 467.2L1259.23 467.2L1259.23 468.39ZM1164.39 468.39L1116.96 468.39L1116.96 467.2L1164.39 467.2L1164.39 468.39ZM1069.52 468.39L1022.13 468.39L1022.13 467.2L1069.52 467.2L1069.52 468.39ZM974.69 468.39L927.3 468.39L927.3 467.2L974.69 467.2L974.69 468.39ZM879.86 468.39L832.59 468.39L832.59 467.2L880.02 467.2L879.86 468.39ZM785.03 468.39L737.59 468.39L737.59 467.2L785.03 467.2L785.03 468.39ZM690.16 468.39L642.76 468.39L642.76 467.2L690.16 467.2L690.16 468.39ZM595.33 468.39L547.93 468.39L547.93 467.2L595.41 467.2L595.33 468.39ZM500.5 468.39L453.06 468.39L453.06 467.2L500.5 467.2L500.5 468.39ZM405.67 468.39L358.23 468.39L358.23 467.2L405.67 467.2L405.67 468.39ZM310.79 468.39L263.4 468.39L263.4 467.2L310.79 467.2L310.79 468.39Z" id="b1ASfJCJ1f"></path><path d="M2374 467.2C2374 467.2 2374 467.2 2374 467.2C2374 467.91 2374 468.31 2374 468.39C2374 468.39 2374 468.39 2374 468.39C2359.53 468.39 2351.49 468.39 2349.88 468.39C2349.88 468.39 2349.88 468.39 2349.88 468.39C2349.88 467.67 2349.88 467.28 2349.88 467.2C2349.88 467.2 2349.88 467.2 2349.88 467.2C2364.36 467.2 2372.4 467.2 2374 467.2Z" id="dgdHYi9Ct"></path><path d="M469.02 -384.28L469.02 470.47" id="a8zqyXd9a"></path><path d="M762.48 -384.28L762.48 470.47" id="b6PyHPdrd"></path><path d="M1055.94 -384.28L1055.94 470.47" id="d4RLT5nOLw"></path><path d="M1349.39 -384.28L1349.39 470.47" id="b1w2P5HaC6"></path><path d="M1642.85 -384.28L1642.85 470.47" id="h34ynFLn4E"></path><path d="M1936.31 -384.28L1936.31 470.47" id="d2kNvVWQgQ"></path><path d="M2229.77 -384.28L2229.77 470.47" id="e2KZImM1xo"></path><path d="M2460.51 665.39C2460.51 665.39 2460.51 665.39 2460.51 665.39C2460.51 665.67 2460.51 665.83 2460.51 665.86C2460.51 665.86 2460.51 665.86 2460.51 665.86C1049.5 665.86 265.61 665.86 108.83 665.86C108.83 665.86 108.83 665.86 108.83 665.86C108.83 665.58 108.83 665.42 108.83 665.39C108.83 665.39 108.83 665.39 108.83 665.39C1519.84 665.39 2303.73 665.39 2460.51 665.39Z" id="a787dMjLY"></path><path d="M470.63 641.91C459.53 641.91 450.53 652.53 450.53 665.62C450.53 678.72 459.53 689.34 470.63 689.34C481.73 689.34 490.73 678.72 490.73 665.62C490.73 652.53 481.73 641.91 470.63 641.91Z" id="e42BzSPtj"></path><path d="M764.09 641.91C752.98 641.91 743.99 652.53 743.99 665.62C743.99 678.72 752.98 689.34 764.09 689.34C775.19 689.34 784.19 678.72 784.19 665.62C784.19 652.53 775.19 641.91 764.09 641.91Z" id="a8R4oCsTD"></path><path d="M1057.54 641.91C1046.44 641.91 1037.44 652.53 1037.44 665.62C1037.44 678.72 1046.44 689.34 1057.54 689.34C1068.64 689.34 1077.64 678.72 1077.64 665.62C1077.64 652.53 1068.64 641.91 1057.54 641.91Z" id="e5KkQfhV6X"></path><path d="M1351 641.91C1339.9 641.91 1330.9 652.53 1330.9 665.62C1330.9 678.72 1339.9 689.34 1351 689.34C1362.1 689.34 1371.1 678.72 1371.1 665.62C1371.1 652.53 1362.1 641.91 1351 641.91Z" id="b5DPpZ160"></path><path d="M1644.46 641.91C1633.36 641.91 1624.36 652.53 1624.36 665.62C1624.36 678.72 1633.36 689.34 1644.46 689.34C1655.56 689.34 1664.56 678.72 1664.56 665.62C1664.56 652.53 1655.56 641.91 1644.46 641.91Z" id="h3zZgVanlZ"></path><path d="M1937.92 641.91C1926.82 641.91 1917.82 652.53 1917.82 665.62C1917.82 678.72 1926.82 689.34 1937.92 689.34C1949.02 689.34 1958.02 678.72 1958.02 665.62C1958.02 652.53 1949.02 641.91 1937.92 641.91Z" id="a37Dwo0HqP"></path><path d="M2231.37 641.91C2220.27 641.91 2211.27 652.53 2211.27 665.62C2211.27 678.72 2220.27 689.34 2231.37 689.34C2242.48 689.34 2251.47 678.72 2251.47 665.62C2251.47 652.53 2242.48 641.91 2231.37 641.91Z" id="b11I8pWMau"></path><path d="M-56.91 1580.29C-68.97 1554.15 -55.3 1522.13 -39.67 1498.84C-24.03 1475.55 -5.06 1451.4 -5.46 1421.56C-6.06 1378.87 -44.45 1353.64 -75.12 1331.01C-97.9 1314.2 -118.9 1294.25 -137.67 1271.57C-145.53 1262.85 -152.03 1252.58 -156.89 1241.21C-163.24 1224.52 -163.08 1205.54 -162.68 1187.28C-161.31 1126.31 -158.75 1065.45 -155 1004.7" id="b1KPHqjmSt"></path><path d="M-185.19 946.92C-184.35 948.88 -180.14 958.7 -172.57 976.38C-172.81 954.97 -172.94 943.08 -172.97 940.71C-166.93 938.62 -160.64 937.72 -154.36 938.05C-123.31 939.87 -99.39 971.04 -100.93 1007.67C-102.47 1044.3 -128.89 1072.52 -159.93 1070.71C-190.85 1068.9 -214.73 1037.96 -213.37 1001.47C-212.46 978.81 -201.85 958.24 -185.19 946.92Z" id="bdAdri2mt"></path><path d="M-36.89 1480.63C-9.27 1463.82 1.57 1423.76 -12.68 1391.17C-26.93 1358.57 -60.88 1345.78 -88.5 1362.6C-100.95 1370.18 -110.56 1382.97 -115.44 1398.46C-113.09 1400.72 -101.34 1411.99 -80.19 1432.29C-103.46 1425.94 -116.4 1422.41 -118.98 1421.71C-118.97 1432.27 -116.82 1442.68 -112.71 1452.07C-98.46 1484.66 -64.51 1497.45 -36.89 1480.63Z" id="akKTR9mh4"></path><path d="M-24.75 1261.24C-22.83 1229.21 -40.6 1200.15 -66.96 1192.21C-66.94 1194.04 -66.83 1203.18 -66.64 1219.63L-79.42 1189.79C-79.42 1189.79 -79.42 1189.79 -79.42 1189.79C-110.47 1188 -136.87 1216.25 -138.39 1252.88C-138.39 1252.98 -138.39 1253.07 -138.4 1253.17C-138.73 1260.85 -137.91 1268.54 -135.99 1275.89C-129.04 1302.69 -108.58 1321.47 -84.85 1322.8C-53.85 1325.39 -26.94 1297.82 -24.75 1261.24Z" id="c2M8MxEz7B"></path><path d="M-163.5 1151.34C-162.36 1114.69 -186.62 1083.88 -217.68 1082.53C-227.82 1082.09 -237.87 1084.9 -246.78 1090.65C-246.11 1092.8 -242.79 1103.55 -236.81 1122.91C-249.11 1108.96 -255.94 1101.21 -257.31 1099.66C-268.3 1111.54 -274.84 1128.07 -275.52 1145.63C-275.79 1151.8 -275.31 1157.98 -274.11 1163.99C-268.33 1192.94 -246.99 1213.86 -221.81 1215.27C-190.75 1216.61 -164.64 1187.99 -163.5 1151.34Z" id="ai6FZJA8K"></path><path d="M-166.73 1027.88C-153.66 1028.83 -139.31 1025.13 -131.03 1013.18C-126.61 1006.73 -124.36 998.52 -120.62 991.5C-117.05 984.93 -112.16 979.51 -106.39 975.7C-92.97 1008.79 -104.83 1048.44 -132.87 1064.27C-160.91 1080.1 -194.51 1066.11 -207.93 1033.02C-209.63 1028.83 -210.95 1024.44 -211.87 1019.92C-209.73 1020.01 -207.6 1020.2 -205.48 1020.48C-188.35 1024.79 -175.44 1027.25 -166.73 1027.88Z" id="aY1h7iUiw"></path><path d="M-162.75 1152.31C-162.28 1141.31 -164.13 1130.34 -168.15 1120.39C-172.62 1123.94 -176.47 1128.49 -179.48 1133.77C-183.5 1140.93 -185.95 1149.19 -190.66 1155.78C-199.46 1167.97 -214.46 1171.96 -228.08 1171.24C-241.71 1170.53 -254.86 1165.93 -268.28 1164.46C-270.17 1164.46 -272.06 1164.13 -273.99 1164.08C-268.19 1192.94 -246.92 1213.81 -221.81 1215.27C-190.77 1217.12 -164.33 1188.94 -162.75 1152.31Z" id="grvs0qJkb"></path><path d="M-25.73 1259.93C-25.26 1249.25 -26.98 1238.6 -30.74 1228.88C-35.42 1232.49 -39.51 1237.07 -42.8 1242.4C-47.18 1249.7 -49.92 1258.1 -54.86 1264.84C-64.39 1277.36 -80.39 1281.77 -94.78 1281.34C-109.17 1280.92 -122.24 1276.98 -136.11 1275.7C-129.2 1302.63 -108.67 1321.5 -84.85 1322.8C-53.81 1324.71 -27.34 1296.56 -25.73 1259.93Z" id="eh8aGdcc9"></path><path d="M-38.26 1485.6C-9.85 1470.6 2.87 1431.27 -9.84 1397.75C-9.84 1397.75 -9.84 1397.75 -9.84 1397.75C-14.49 1401.33 -18.67 1405.71 -22.22 1410.75C-27.61 1418.48 -31.14 1427.26 -37.34 1434.47C-48.87 1447.84 -67.49 1453.44 -84.09 1453.87C-93.65 1453.91 -103.21 1453.31 -112.71 1452.07C-100 1485.59 -66.67 1500.6 -38.26 1485.6Z" id="a13WBlPZtA"></path><path d="M-29.78 1537.31C-29.78 1537.31 -98.12 1512.59 -101.57 1530.67C-101.57 1530.67 -168.51 1620.8 -118.26 1621.08C-118.26 1621.08 -1.44 1611.83 11.99 1602.11C25.42 1592.38 28.19 1550.21 28.19 1550.21C16.6 1547.63 -16.35 1548.6 -29.78 1537.31Z" id="byn6EG1dh"></path><path d="M2165.77 -192.22L2302.45 -192.22L2302.45 485.7L2165.77 485.7L2165.77 -192.22Z" id="d21V2BP5Bh"></path><path d="M1867.97 241.21L2004.65 241.21L2004.65 485.7L1867.97 485.7L1867.97 241.21Z" id="b32YxY7kLP"></path><path d="M1576.12 100.63L1712.8 100.63L1712.8 485.7L1576.12 485.7L1576.12 100.63Z" id="aKB7wb2BL"></path><path d="M1281.05 449.96L1417.73 449.96L1417.73 485.7L1281.05 485.7L1281.05 449.96Z" id="b5rcclViLG"></path><path d="M987.6 -340.26L1124.27 -340.26L1124.27 485.7L987.6 485.7L987.6 -340.26Z" id="i1sVOT7kP"></path><path d="M400.68 8L537.36 8L537.36 485.7L400.68 485.7L400.68 8Z" id="bfrbhJVcO"></path><path d="M694.14 217.59L830.82 217.59L830.82 485.7L694.14 485.7L694.14 217.59Z" id="h2NYHBqUs5"></path></defs><g><g><g><use xlink:href="#b6Xzn1RHm7" opacity="1" fill="#f2f2f2" fill-opacity="1"></use><g><use xlink:href="#b6Xzn1RHm7" opacity="1" fill-opacity="0" stroke="#000000" stroke-width="1" stroke-opacity="0"></use></g></g><g><use xlink:href="#a1C0gF4S1I" opacity="1" fill="#f2f2f2" fill-opacity="1"></use><g><use xlink:href="#a1C0gF4S1I" opacity="1" fill-opacity="0" stroke="#000000" stroke-width="1" stroke-opacity="0"></use></g></g><g><use xlink:href="#b2EO0AjZKA" opacity="1" fill="#0000ff" fill-opacity="1"></use><g><use xlink:href="#b2EO0AjZKA" opacity="1" fill-opacity="0" stroke="#000000" stroke-width="1" stroke-opacity="0"></use></g></g><g><use xlink:href="#a2ksQwYbgL" opacity="1" fill="#000000" fill-opacity="1"></use><g><use xlink:href="#a2ksQwYbgL" opacity="1" fill-opacity="0" stroke="#000000" stroke-width="1" stroke-opacity="0"></use></g></g><g><use xlink:href="#a1jgF88hpM" opacity="1" fill="#0000ff" fill-opacity="1"></use><g><use xlink:href="#a1jgF88hpM" opacity="1" fill-opacity="0" stroke="#000000" stroke-width="1" stroke-opacity="0"></use></g></g><g><use xlink:href="#bpVrZS27J" opacity="1" fill="#0000ff" fill-opacity="1"></use><g><use xlink:href="#bpVrZS27J" opacity="1" fill-opacity="0" stroke="#000000" stroke-width="1" stroke-opacity="0"></use></g></g><g><use xlink:href="#bfy77w0b8" opacity="1" fill="#f9f9ff" fill-opacity="1.00"></use><g><use xlink:href="#bfy77w0b8" opacity="1" fill-opacity="0" stroke="#000000" stroke-width="1" stroke-opacity="0"></use></g></g><g><use xlink:href="#bHMWIUkZG" opacity="1" fill="#fff9f9" fill-opacity="1"></use><g><use xlink:href="#bHMWIUkZG" opacity="1" fill-opacity="0" stroke="#000000" stroke-width="1" stroke-opacity="0"></use></g></g><g><use xlink:href="#joK1mloxq" opacity="1" fill="#6c63ff" fill-opacity="1"></use><g><use xlink:href="#joK1mloxq" opacity="1" fill-opacity="0" stroke="#000000" stroke-width="1" stroke-opacity="0"></use></g></g><g><use xlink:href="#b6sB1ZQ30" opacity="1" fill="#0000ff" fill-opacity="1"></use><g><use xlink:href="#b6sB1ZQ30" opacity="1" fill-opacity="0" stroke="#000000" stroke-width="1" stroke-opacity="0"></use></g></g><g><use xlink:href="#aiaVmH3Xp" opacity="1" fill="#e4e4e4" fill-opacity="1"></use><g><use xlink:href="#aiaVmH3Xp" opacity="1" fill-opacity="0" stroke="#000000" stroke-width="1" stroke-opacity="0"></use></g></g><g><use xlink:href="#c1ldRebWKw" opacity="1" fill="#6c63ff" fill-opacity="1"></use><g><use xlink:href="#c1ldRebWKw" opacity="1" fill-opacity="0" stroke="#000000" stroke-width="1" stroke-opacity="0"></use></g></g><g><use xlink:href="#b2khqR88xM" opacity="1" fill="#6c63ff" fill-opacity="1"></use><g><use xlink:href="#b2khqR88xM" opacity="1" fill-opacity="0" stroke="#000000" stroke-width="1" stroke-opacity="0"></use></g></g><g><use xlink:href="#a1ZMfRQT1H" opacity="1" fill="#6c63ff" fill-opacity="1"></use><g><use xlink:href="#a1ZMfRQT1H" opacity="1" fill-opacity="0" stroke="#000000" stroke-width="1" stroke-opacity="0"></use></g></g><g><use xlink:href="#aTJQNamUr" opacity="1" fill="#6c63ff" fill-opacity="1"></use><g><use xlink:href="#aTJQNamUr" opacity="1" fill-opacity="0" stroke="#000000" stroke-width="1" stroke-opacity="0"></use></g></g><g><use xlink:href="#c14ToecFY5" opacity="1" fill="#6c63ff" fill-opacity="1"></use><g><use xlink:href="#c14ToecFY5" opacity="1" fill-opacity="0" stroke="#000000" stroke-width="1" stroke-opacity="0"></use></g></g><g><use xlink:href="#g13UiuiW06" opacity="1" fill="#f2f2f2" fill-opacity="1"></use><g><use xlink:href="#g13UiuiW06" opacity="1" fill-opacity="0" stroke="#000000" stroke-width="1" stroke-opacity="0"></use></g></g><g><use xlink:href="#b4eGlNZhQs" opacity="1" fill="#f2f2f2" fill-opacity="1"></use><g><use xlink:href="#b4eGlNZhQs" opacity="1" fill-opacity="0" stroke="#000000" stroke-width="1" stroke-opacity="0"></use></g></g><g><use xlink:href="#bXkzSnEhb" opacity="1" fill="#f2f2f2" fill-opacity="1"></use><g><use xlink:href="#bXkzSnEhb" opacity="1" fill-opacity="0" stroke="#000000" stroke-width="1" stroke-opacity="0"></use></g></g><g><use xlink:href="#a1ocwyFcRz" opacity="1" fill="#f2f2f2" fill-opacity="1"></use><g><use xlink:href="#a1ocwyFcRz" opacity="1" fill-opacity="0" stroke="#000000" stroke-width="1" stroke-opacity="0"></use></g></g><g><use xlink:href="#e1RYNIRd99" opacity="1" fill="#f2f2f2" fill-opacity="1"></use><g><use xlink:href="#e1RYNIRd99" opacity="1" fill-opacity="0" stroke="#000000" stroke-width="1" stroke-opacity="0"></use></g></g><g><use xlink:href="#mhUeh5bvj" opacity="1" fill="#f2f2f2" fill-opacity="1"></use><g><use xlink:href="#mhUeh5bvj" opacity="1" fill-opacity="0" stroke="#000000" stroke-width="1" stroke-opacity="0"></use></g></g><g><use xlink:href="#c2ksZ1UeJz" opacity="1" fill="#6c63ff" fill-opacity="1"></use><g><use xlink:href="#c2ksZ1UeJz" opacity="1" fill-opacity="0" stroke="#000000" stroke-width="1" stroke-opacity="0"></use></g></g><g><use xlink:href="#b9XiIwvcM" opacity="1" fill="#6c63ff" fill-opacity="1"></use><g><use xlink:href="#b9XiIwvcM" opacity="1" fill-opacity="0" stroke="#000000" stroke-width="1" stroke-opacity="0"></use></g></g><g><use xlink:href="#altU5F7P3" opacity="1" fill="#f2f2f2" fill-opacity="1"></use><g><use xlink:href="#altU5F7P3" opacity="1" fill-opacity="0" stroke="#000000" stroke-width="1" stroke-opacity="0"></use></g></g><g><use xlink:href="#ceMV8jFd0" opacity="1" fill="#f2f2f2" fill-opacity="1"></use><g><use xlink:href="#ceMV8jFd0" opacity="1" fill-opacity="0" stroke="#000000" stroke-width="1" stroke-opacity="0"></use></g></g><g><use xlink:href="#aHCJy1ig6" opacity="1" fill="#f2f2f2" fill-opacity="1"></use><g><use xlink:href="#aHCJy1ig6" opacity="1" fill-opacity="0" stroke="#000000" stroke-width="1" stroke-opacity="0"></use></g></g><g><use xlink:href="#di5UmZ98v" opacity="1" fill="#6c63ff" fill-opacity="1"></use><g><use xlink:href="#di5UmZ98v" opacity="1" fill-opacity="0" stroke="#000000" stroke-width="1" stroke-opacity="0"></use></g></g><g><use xlink:href="#cv94lWIuV" opacity="1" fill="#f2f2f2" fill-opacity="1"></use><g><use xlink:href="#cv94lWIuV" opacity="1" fill-opacity="0" stroke="#000000" stroke-width="1" stroke-opacity="0"></use></g></g><g><use xlink:href="#a3JfXUE3aC" opacity="1" fill="#f2f2f2" fill-opacity="1"></use><g><use xlink:href="#a3JfXUE3aC" opacity="1" fill-opacity="0" stroke="#000000" stroke-width="1" stroke-opacity="0"></use></g></g><g><use xlink:href="#a33T7eIw4y" opacity="1" fill="#f2f2f2" fill-opacity="1"></use><g><use xlink:href="#a33T7eIw4y" opacity="1" fill-opacity="0" stroke="#000000" stroke-width="1" stroke-opacity="0"></use></g></g><g><use xlink:href="#f4QwQpjie7" opacity="1" fill="#f2f2f2" fill-opacity="1"></use><g><use xlink:href="#f4QwQpjie7" opacity="1" fill-opacity="0" stroke="#000000" stroke-width="1" stroke-opacity="0"></use></g></g><g><use xlink:href="#gHqtjyXDG" opacity="1" fill="#f2f2f2" fill-opacity="1"></use><g><use xlink:href="#gHqtjyXDG" opacity="1" fill-opacity="0" stroke="#000000" stroke-width="1" stroke-opacity="0"></use></g></g><g><use xlink:href="#c5RUIV51L1" opacity="1" fill="#f2f2f2" fill-opacity="1"></use><g><use xlink:href="#c5RUIV51L1" opacity="1" fill-opacity="0" stroke="#000000" stroke-width="1" stroke-opacity="0"></use></g></g><g><use xlink:href="#c1hohUmoFg" opacity="1" fill="#6c63ff" fill-opacity="1"></use><g><use xlink:href="#c1hohUmoFg" opacity="1" fill-opacity="0" stroke="#000000" stroke-width="1" stroke-opacity="0"></use></g></g><g><use xlink:href="#c1oa6iuwAf" opacity="1" fill="#f2f2f2" fill-opacity="1"></use><g><use xlink:href="#c1oa6iuwAf" opacity="1" fill-opacity="0" stroke="#000000" stroke-width="1" stroke-opacity="0"></use></g></g><g><use xlink:href="#h5P5Pgbhqb" opacity="1" fill="#f2f2f2" fill-opacity="1"></use><g><use xlink:href="#h5P5Pgbhqb" opacity="1" fill-opacity="0" stroke="#000000" stroke-width="1" stroke-opacity="0"></use></g></g><g><use xlink:href="#cGjVvp8HJ" opacity="1" fill="#f2f2f2" fill-opacity="1"></use><g><use xlink:href="#cGjVvp8HJ" opacity="1" fill-opacity="0" stroke="#000000" stroke-width="1" stroke-opacity="0"></use></g></g><g><use xlink:href="#a2Arto8lb" opacity="1" fill="#f2f2f2" fill-opacity="1"></use><g><use xlink:href="#a2Arto8lb" opacity="1" fill-opacity="0" stroke="#000000" stroke-width="1" stroke-opacity="0"></use></g></g><g><use xlink:href="#hjlurByJ2" opacity="1" fill="#f2f2f2" fill-opacity="1"></use><g><use xlink:href="#hjlurByJ2" opacity="1" fill-opacity="0" stroke="#000000" stroke-width="1" stroke-opacity="0"></use></g></g><g><use xlink:href="#fuIIduUDX" opacity="1" fill="#f2f2f2" fill-opacity="1"></use><g><use xlink:href="#fuIIduUDX" opacity="1" fill-opacity="0" stroke="#000000" stroke-width="1" stroke-opacity="0"></use></g></g><g><use xlink:href="#b8GrkaPZg" opacity="1" fill="#6c63ff" fill-opacity="1"></use><g><use xlink:href="#b8GrkaPZg" opacity="1" fill-opacity="0" stroke="#000000" stroke-width="1" stroke-opacity="0"></use></g></g><g><use xlink:href="#a8WaegiBW" opacity="1" fill="#f2f2f2" fill-opacity="1"></use><g><use xlink:href="#a8WaegiBW" opacity="1" fill-opacity="0" stroke="#000000" stroke-width="1" stroke-opacity="0"></use></g></g><g><use xlink:href="#b2SPX5to3n" opacity="1" fill="#f2f2f2" fill-opacity="1"></use><g><use xlink:href="#b2SPX5to3n" opacity="1" fill-opacity="0" stroke="#000000" stroke-width="1" stroke-opacity="0"></use></g></g><g><use xlink:href="#aKbM3ep14" opacity="1" fill="#f2f2f2" fill-opacity="1"></use><g><use xlink:href="#aKbM3ep14" opacity="1" fill-opacity="0" stroke="#000000" stroke-width="1" stroke-opacity="0"></use></g></g><g><use xlink:href="#acrZ97WSb" opacity="1" fill="#f2f2f2" fill-opacity="1"></use><g><use xlink:href="#acrZ97WSb" opacity="1" fill-opacity="0" stroke="#000000" stroke-width="1" stroke-opacity="0"></use></g></g><g><use xlink:href="#b1ASfJCJ1f" opacity="1" fill="#f2f2f2" fill-opacity="1"></use><g><use xlink:href="#b1ASfJCJ1f" opacity="1" fill-opacity="0" stroke="#000000" stroke-width="1" stroke-opacity="0"></use></g></g><g><use xlink:href="#dgdHYi9Ct" opacity="1" fill="#f2f2f2" fill-opacity="1"></use><g><use xlink:href="#dgdHYi9Ct" opacity="1" fill-opacity="0" stroke="#000000" stroke-width="1" stroke-opacity="0"></use></g></g><g><use xlink:href="#a8zqyXd9a" opacity="1" fill="#000000" fill-opacity="0"></use><g><use xlink:href="#a8zqyXd9a" opacity="1" fill-opacity="0" stroke="#f2f2f2" stroke-width="0.1" stroke-opacity="1"></use></g></g><g><use xlink:href="#b6PyHPdrd" opacity="1" fill="#000000" fill-opacity="0"></use><g><use xlink:href="#b6PyHPdrd" opacity="1" fill-opacity="0" stroke="#f2f2f2" stroke-width="0.1" stroke-opacity="1"></use></g></g><g><use xlink:href="#d4RLT5nOLw" opacity="1" fill="#000000" fill-opacity="0"></use><g><use xlink:href="#d4RLT5nOLw" opacity="1" fill-opacity="0" stroke="#f2f2f2" stroke-width="0.1" stroke-opacity="1"></use></g></g><g><use xlink:href="#b1w2P5HaC6" opacity="1" fill="#000000" fill-opacity="0"></use><g><use xlink:href="#b1w2P5HaC6" opacity="1" fill-opacity="0" stroke="#f2f2f2" stroke-width="0.1" stroke-opacity="1"></use></g></g><g><use xlink:href="#h34ynFLn4E" opacity="1" fill="#000000" fill-opacity="0"></use><g><use xlink:href="#h34ynFLn4E" opacity="1" fill-opacity="0" stroke="#f2f2f2" stroke-width="0.1" stroke-opacity="1"></use></g></g><g><use xlink:href="#d2kNvVWQgQ" opacity="1" fill="#000000" fill-opacity="0"></use><g><use xlink:href="#d2kNvVWQgQ" opacity="1" fill-opacity="0" stroke="#f2f2f2" stroke-width="0.1" stroke-opacity="1"></use></g></g><g><use xlink:href="#e2KZImM1xo" opacity="1" fill="#000000" fill-opacity="0"></use><g><use xlink:href="#e2KZImM1xo" opacity="1" fill-opacity="0" stroke="#f2f2f2" stroke-width="0.1" stroke-opacity="1"></use></g></g><g><use xlink:href="#a787dMjLY" opacity="1" fill="#f2f2f2" fill-opacity="1"></use><g><use xlink:href="#a787dMjLY" opacity="1" fill-opacity="0" stroke="#000000" stroke-width="1" stroke-opacity="0"></use></g></g><g><use xlink:href="#e42BzSPtj" opacity="1" fill="#6c63ff" fill-opacity="1"></use><g><use xlink:href="#e42BzSPtj" opacity="1" fill-opacity="0" stroke="#000000" stroke-width="1" stroke-opacity="0"></use></g></g><g><use xlink:href="#a8R4oCsTD" opacity="1" fill="#6c63ff" fill-opacity="1"></use><g><use xlink:href="#a8R4oCsTD" opacity="1" fill-opacity="0" stroke="#000000" stroke-width="1" stroke-opacity="0"></use></g></g><g><use xlink:href="#e5KkQfhV6X" opacity="1" fill="#6c63ff" fill-opacity="1"></use><g><use xlink:href="#e5KkQfhV6X" opacity="1" fill-opacity="0" stroke="#000000" stroke-width="1" stroke-opacity="0"></use></g></g><g><use xlink:href="#b5DPpZ160" opacity="1" fill="#6c63ff" fill-opacity="1"></use><g><use xlink:href="#b5DPpZ160" opacity="1" fill-opacity="0" stroke="#000000" stroke-width="1" stroke-opacity="0"></use></g></g><g><use xlink:href="#h3zZgVanlZ" opacity="1" fill="#6c63ff" fill-opacity="1"></use><g><use xlink:href="#h3zZgVanlZ" opacity="1" fill-opacity="0" stroke="#000000" stroke-width="1" stroke-opacity="0"></use></g></g><g><use xlink:href="#a37Dwo0HqP" opacity="1" fill="#6c63ff" fill-opacity="1"></use><g><use xlink:href="#a37Dwo0HqP" opacity="1" fill-opacity="0" stroke="#000000" stroke-width="1" stroke-opacity="0"></use></g></g><g><use xlink:href="#b11I8pWMau" opacity="1" fill="#6c63ff" fill-opacity="1"></use><g><use xlink:href="#b11I8pWMau" opacity="1" fill-opacity="0" stroke="#000000" stroke-width="1" stroke-opacity="0"></use></g></g><g><use xlink:href="#b1KPHqjmSt" opacity="1" fill="#000000" fill-opacity="0"></use><g><use xlink:href="#b1KPHqjmSt" opacity="1" fill-opacity="0" stroke="#3f3d56" stroke-width="4" stroke-opacity="1"></use></g></g><g><use xlink:href="#bdAdri2mt" opacity="1" fill="#0000ff" fill-opacity="1"></use><g><use xlink:href="#bdAdri2mt" opacity="1" fill-opacity="0" stroke="#000000" stroke-width="1" stroke-opacity="0"></use></g></g><g><use xlink:href="#akKTR9mh4" opacity="1" fill="#0000ff" fill-opacity="1"></use><g><use xlink:href="#akKTR9mh4" opacity="1" fill-opacity="0" stroke="#000000" stroke-width="1" stroke-opacity="0"></use></g></g><g><use xlink:href="#c2M8MxEz7B" opacity="1" fill="#0000ff" fill-opacity="1"></use><g><use xlink:href="#c2M8MxEz7B" opacity="1" fill-opacity="0" stroke="#000000" stroke-width="1" stroke-opacity="0"></use></g></g><g><use xlink:href="#ai6FZJA8K" opacity="1" fill="#0000ff" fill-opacity="1"></use><g><use xlink:href="#ai6FZJA8K" opacity="1" fill-opacity="0" stroke="#000000" stroke-width="1" stroke-opacity="0"></use></g></g><g><use xlink:href="#aY1h7iUiw" opacity="1" fill="#ffffff" fill-opacity="1"></use><g><use xlink:href="#aY1h7iUiw" opacity="1" fill-opacity="0" stroke="#000000" stroke-width="1" stroke-opacity="0"></use></g></g><g><use xlink:href="#grvs0qJkb" opacity="1" fill="#f9f9ff" fill-opacity="1"></use><g><use xlink:href="#grvs0qJkb" opacity="1" fill-opacity="0" stroke="#000000" stroke-width="1" stroke-opacity="0"></use></g></g><g><use xlink:href="#eh8aGdcc9" opacity="1" fill="#e4e4e4" fill-opacity="1"></use><g><use xlink:href="#eh8aGdcc9" opacity="1" fill-opacity="0" stroke="#000000" stroke-width="1" stroke-opacity="0"></use></g></g><g><use xlink:href="#a13WBlPZtA" opacity="1" fill="#f9f9ff" fill-opacity="1"></use><g><use xlink:href="#a13WBlPZtA" opacity="1" fill-opacity="0" stroke="#000000" stroke-width="1" stroke-opacity="0"></use></g></g><g><use xlink:href="#byn6EG1dh" opacity="1" fill="#f2f2f2" fill-opacity="1"></use><g><use xlink:href="#byn6EG1dh" opacity="1" fill-opacity="0" stroke="#000000" stroke-width="1" stroke-opacity="0"></use></g></g><g><use xlink:href="#d21V2BP5Bh" opacity="1" fill="#0000ff" fill-opacity="1"></use></g><g><use xlink:href="#b32YxY7kLP" opacity="1" fill="#0000ff" fill-opacity="1"></use></g><g><use xlink:href="#aKB7wb2BL" opacity="1" fill="#0000ff" fill-opacity="1"></use></g><g><use xlink:href="#b5rcclViLG" opacity="1" fill="#0000ff" fill-opacity="1"></use></g><g><use xlink:href="#i1sVOT7kP" opacity="1" fill="#0000ff" fill-opacity="1"></use></g><g><use xlink:href="#bfrbhJVcO" opacity="1" fill="#0000ff" fill-opacity="1"></use></g><g><use xlink:href="#h2NYHBqUs5" opacity="1" fill="#0000ff" fill-opacity="1"></use></g></g></g></svg>