<?xml version="1.0" encoding="UTF-8"?>
<svg width="172.52" height="66.218" version="1.1" viewBox="0 0 45.646 17.52" xmlns="http://www.w3.org/2000/svg" xmlns:cc="http://creativecommons.org/ns#" xmlns:dc="http://purl.org/dc/elements/1.1/" xmlns:rdf="http://www.w3.org/1999/02/22-rdf-syntax-ns#">
 <metadata>
  <rdf:RDF>
   <cc:Work rdf:about="">
    <dc:format>image/svg+xml</dc:format>
    <dc:type rdf:resource="http://purl.org/dc/dcmitype/StillImage"/>
    <dc:title/>
   </cc:Work>
  </rdf:RDF>
 </metadata>
 <g transform="translate(-98.397 -62.708)">
  <g transform="translate(4.4412 5.1027)" fill="#00f">
   <g aria-label="Invoice.">
    <path d="m101.14 72.403-1.0322-0.05117 1.8142-7.582 1.0322 0.05117z" stroke-width=".29423"/>
    <g stroke-width=".26458">
     <path d="m109.36 68.028q0 0.12402-0.0258 0.3359-0.0207 0.21187-0.062 0.37207l-0.86816 3.7465h-0.97151l0.75964-3.2866q0.062-0.27388 0.093-0.47542 0.0362-0.2067 0.0362-0.40824 0-0.43408-0.21704-0.65112-0.21187-0.22221-0.76998-0.22221-0.39274 0-0.86816 0.21704-0.47025 0.21704-0.91984 0.51676l-0.99735 4.3098h-0.97151l1.3332-5.7722h0.97151l-0.14986 0.64079q0.55293-0.38757 1.0335-0.59428 0.48576-0.20671 0.99736-0.20671 0.75447 0 1.173 0.3824 0.42374 0.37724 0.42374 1.0955z"/>
     <path d="m116.52 66.711-3.669 5.7722h-0.96635l-0.98702-5.7722h0.99219l0.72863 4.594 2.8319-4.594z"/>
     <path d="m122.2 68.752q0 0.77514-0.23771 1.4883-0.23771 0.71313-0.67179 1.2402-0.44958 0.54777-1.0387 0.85783-0.58911 0.30489-1.3746 0.30489-1.0284 0-1.6071-0.58394-0.57361-0.58911-0.57361-1.6226 0-0.77514 0.23255-1.4779 0.23771-0.7028 0.68212-1.2506 0.42892-0.5271 1.049-0.84232 0.62528-0.31523 1.3642-0.31523 0.99736 0 1.5865 0.56844 0.5891 0.56844 0.5891 1.633zm-1.5813 2.1807q0.27905-0.41341 0.42375-0.95601 0.14986-0.5426 0.14986-1.1472 0-0.72347-0.34623-1.0955t-0.97668-0.37207q-0.50126 0-0.89917 0.24288-0.39791 0.23771-0.6873 0.65629-0.27905 0.40824-0.42891 0.95601-0.14986 0.54777-0.14986 1.1369 0 0.71313 0.34623 1.0955 0.34623 0.3824 0.98185 0.3824 0.49609 0 0.89917-0.23771 0.40307-0.23771 0.68729-0.66146z"/>
     <path d="m125.78 64.737-0.23254 1.0077h-1.0955l0.23254-1.0077zm-0.51676 1.974-1.3332 5.7722h-0.97152l1.3332-5.7722z"/>
     <path d="m128.35 72.612q-0.54777 0-0.97152-0.12919-0.41857-0.12919-0.7338-0.40824-0.30489-0.26872-0.47025-0.67696-0.16537-0.40824-0.16537-0.95084 0-0.81132 0.25322-1.5141 0.25321-0.7028 0.7183-1.2351 0.44958-0.51676 1.111-0.81648 0.66145-0.30489 1.4263-0.30489 0.50643 0 0.95085 0.13952 0.44958 0.13953 0.79064 0.33073l-0.21187 1.049h-0.0568q-0.10336-0.09302-0.25839-0.21704-0.15502-0.12402-0.3669-0.23254-0.21187-0.11369-0.47025-0.18603-0.25838-0.07752-0.58911-0.07752-1.0025 0-1.6381 0.84749-0.63045 0.84749-0.63045 2.0619 0 0.72864 0.37207 1.1214 0.37724 0.39274 1.0697 0.39274 0.32556 0 0.65112-0.09302t0.55294-0.20154q0.25321-0.11886 0.47025-0.25321 0.21704-0.13436 0.31523-0.20154h0.0568l-0.20671 1.0594q-0.44958 0.20154-0.95084 0.3514-0.50126 0.14469-1.018 0.14469z"/>
     <path d="m136.04 68.969q0.0258-0.14986 0.0362-0.25321 0.0103-0.10335 0.0103-0.22738 0-0.55294-0.30489-0.86299-0.29973-0.31006-0.96635-0.31006-0.7338 0-1.3022 0.45475-0.56844 0.45475-0.76998 1.1989zm-1.943 3.6483q-1.1989 0-1.881-0.56327-0.68212-0.56327-0.68212-1.6485 0-1.5865 1.0025-2.7182 1.0025-1.1369 2.4805-1.1369 0.98185 0 1.5038 0.49092 0.52193 0.48576 0.52193 1.3694 0 0.15503-0.0465 0.49092-0.0413 0.3359-0.13953 0.78031h-4.253q-0.031 0.14986-0.0465 0.29456-0.0103 0.14469-0.0103 0.26872 0 0.72864 0.44442 1.1472 0.44441 0.41341 1.2609 0.41341 0.56844 0 1.1679-0.22221 0.60462-0.22221 1.0129-0.50126h0.0568l-0.21187 1.049q-0.25838 0.09302-0.46509 0.17053-0.2067 0.07751-0.5271 0.15503-0.32039 0.07751-0.56843 0.11886-0.24805 0.04134-0.62012 0.04134z"/>
     <path d="m139.26 72.483h-1.2454l0.34106-1.4728h1.2454z"/>
    </g>
   </g>
   <path d="m125.46 57.606a7.9513 22.985 80.185 0 0-10.174 0.92501 7.9513 22.985 80.185 0 0-21.293 11.753 7.9513 22.985 80.185 0 0 18.022 4.6695 7.4537 21.774 80.32 0 1-15.528-4.4741 7.4537 21.774 80.32 0 1 20.178-11.014 7.4537 21.774 80.32 0 1 22.664 3.3352 7.9513 22.985 80.185 0 0-0.0377-0.35295 7.9513 22.985 80.185 0 0-13.831-4.8416z"/>
  </g>
 </g>
</svg>
